<svg xmlns="http://www.w3.org/2000/svg" viewBox="0 0 1600 1200" width="1600" height="1200">
  <defs>
    <radialGradient id="fade" cx="68%" cy="46%" r="72%">
      <stop offset="0%" stop-color="#fff" stop-opacity="1"/>
      <stop offset="55%" stop-color="#fff" stop-opacity="0.7"/>
      <stop offset="100%" stop-color="#fff" stop-opacity="0"/>
    </radialGradient>
    <mask id="edgeFade">
      <rect width="1600" height="1200" fill="url(#fade)"/>
    </mask>
  </defs>
  <g mask="url(#edgeFade)">
    <path d="M -60,13 L -42,12 L -24,11 L -6,9 L 12,8 L 30,7 L 48,5 L 66,4 L 84,3 L 102,1 L 120,-0 L 138,-2 L 156,-3 L 174,-5 L 192,-6 L 210,-8 L 228,-9 L 246,-11 L 264,-12 L 282,-14 L 300,-15 L 318,-16 L 336,-18 L 354,-19 L 372,-20 L 390,-21 L 408,-23 L 426,-24 L 444,-25 L 462,-26 L 480,-26 L 498,-27 L 516,-28 L 534,-28 L 552,-29 L 570,-29 L 588,-29 L 606,-29 L 624,-29 L 642,-29 L 660,-29 L 678,-28 L 696,-28 L 714,-27 L 732,-26 L 750,-25 L 768,-23 L 786,-22 L 804,-20 L 822,-18 L 840,-17 L 858,-15 L 876,-13 L 894,-11 L 912,-9 L 930,-7 L 948,-5 L 966,-3 L 984,-2 L 1002,-0 L 1020,1 L 1038,2 L 1056,3 L 1074,4 L 1092,5 L 1110,5 L 1128,5 L 1146,5 L 1164,5 L 1182,5 L 1200,4 L 1218,4 L 1236,3 L 1254,3 L 1272,2 L 1290,2 L 1308,2 L 1326,2 L 1344,2 L 1362,3 L 1380,3 L 1398,4 L 1416,5 L 1434,6 L 1452,7 L 1470,8 L 1488,9 L 1506,10 L 1524,11 L 1542,11 L 1560,12 L 1578,12 L 1596,11 L 1614,10 L 1632,9 L 1650,7" fill="none" stroke="#6c7eb2" stroke-width="1.50" stroke-linecap="round"/>
    <path d="M -60,40 L -42,39 L -24,37 L -6,36 L 12,35 L 30,33 L 48,32 L 66,30 L 84,29 L 102,27 L 120,26 L 138,24 L 156,23 L 174,21 L 192,20 L 210,18 L 228,16 L 246,15 L 264,13 L 282,12 L 300,10 L 318,9 L 336,8 L 354,6 L 372,5 L 390,4 L 408,3 L 426,1 L 444,0 L 462,-1 L 480,-1 L 498,-2 L 516,-3 L 534,-3 L 552,-4 L 570,-4 L 588,-4 L 606,-4 L 624,-4 L 642,-4 L 660,-4 L 678,-3 L 696,-2 L 714,-1 L 732,0 L 750,1 L 768,3 L 786,5 L 804,6 L 822,8 L 840,10 L 858,13 L 876,15 L 894,17 L 912,19 L 930,21 L 948,23 L 966,25 L 984,27 L 1002,29 L 1020,31 L 1038,32 L 1056,33 L 1074,34 L 1092,34 L 1110,35 L 1128,35 L 1146,35 L 1164,34 L 1182,34 L 1200,33 L 1218,33 L 1236,32 L 1254,31 L 1272,31 L 1290,30 L 1308,30 L 1326,29 L 1344,29 L 1362,30 L 1380,30 L 1398,30 L 1416,31 L 1434,32 L 1452,33 L 1470,34 L 1488,35 L 1506,35 L 1524,36 L 1542,37 L 1560,37 L 1578,36 L 1596,36 L 1614,35 L 1632,33 L 1650,31" fill="none" stroke="#6c7eb2" stroke-width="0.90" stroke-linecap="round"/>
    <path d="M -60,66 L -42,65 L -24,64 L -6,62 L 12,61 L 30,59 L 48,58 L 66,56 L 84,55 L 102,53 L 120,52 L 138,50 L 156,48 L 174,47 L 192,45 L 210,43 L 228,42 L 246,40 L 264,38 L 282,37 L 300,35 L 318,34 L 336,32 L 354,31 L 372,29 L 390,28 L 408,26 L 426,25 L 444,24 L 462,23 L 480,22 L 498,21 L 516,20 L 534,20 L 552,19 L 570,19 L 588,19 L 606,19 L 624,19 L 642,19 L 660,20 L 678,20 L 696,21 L 714,22 L 732,24 L 750,25 L 768,27 L 786,29 L 804,31 L 822,33 L 840,35 L 858,38 L 876,40 L 894,43 L 912,45 L 930,48 L 948,50 L 966,52 L 984,54 L 1002,56 L 1020,58 L 1038,59 L 1056,61 L 1074,62 L 1092,62 L 1110,63 L 1128,63 L 1146,62 L 1164,62 L 1182,61 L 1200,61 L 1218,60 L 1236,59 L 1254,58 L 1272,57 L 1290,57 L 1308,56 L 1326,56 L 1344,55 L 1362,55 L 1380,56 L 1398,56 L 1416,57 L 1434,57 L 1452,58 L 1470,59 L 1488,60 L 1506,61 L 1524,61 L 1542,62 L 1560,62 L 1578,62 L 1596,61 L 1614,60 L 1632,58 L 1650,56" fill="none" stroke="#6c7eb2" stroke-width="0.90" stroke-linecap="round"/>
    <path d="M -60,93 L -42,91 L -24,90 L -6,88 L 12,87 L 30,85 L 48,84 L 66,82 L 84,80 L 102,79 L 120,77 L 138,75 L 156,73 L 174,72 L 192,70 L 210,68 L 228,66 L 246,64 L 264,62 L 282,61 L 300,59 L 318,57 L 336,55 L 354,54 L 372,52 L 390,51 L 408,49 L 426,48 L 444,47 L 462,45 L 480,44 L 498,43 L 516,43 L 534,42 L 552,41 L 570,41 L 588,41 L 606,41 L 624,41 L 642,41 L 660,42 L 678,43 L 696,44 L 714,45 L 732,46 L 750,48 L 768,50 L 786,52 L 804,54 L 822,57 L 840,59 L 858,62 L 876,65 L 894,68 L 912,71 L 930,73 L 948,76 L 966,79 L 984,81 L 1002,84 L 1020,86 L 1038,87 L 1056,89 L 1074,90 L 1092,91 L 1110,91 L 1128,92 L 1146,91 L 1164,91 L 1182,91 L 1200,90 L 1218,89 L 1236,88 L 1254,87 L 1272,86 L 1290,85 L 1308,85 L 1326,84 L 1344,84 L 1362,84 L 1380,84 L 1398,84 L 1416,85 L 1434,86 L 1452,87 L 1470,88 L 1488,89 L 1506,89 L 1524,90 L 1542,91 L 1560,91 L 1578,91 L 1596,90 L 1614,89 L 1632,88 L 1650,86" fill="none" stroke="#6c7eb2" stroke-width="0.90" stroke-linecap="round"/>
    <path d="M -60,119 L -42,117 L -24,116 L -6,114 L 12,113 L 30,111 L 48,109 L 66,107 L 84,105 L 102,104 L 120,102 L 138,100 L 156,98 L 174,96 L 192,94 L 210,92 L 228,90 L 246,88 L 264,86 L 282,84 L 300,82 L 318,80 L 336,78 L 354,76 L 372,75 L 390,73 L 408,71 L 426,70 L 444,69 L 462,67 L 480,66 L 498,65 L 516,64 L 534,63 L 552,63 L 570,62 L 588,62 L 606,62 L 624,62 L 642,63 L 660,64 L 678,65 L 696,66 L 714,67 L 732,69 L 750,71 L 768,73 L 786,76 L 804,78 L 822,81 L 840,84 L 858,87 L 876,91 L 894,94 L 912,97 L 930,101 L 948,104 L 966,107 L 984,110 L 1002,113 L 1020,115 L 1038,117 L 1056,119 L 1074,120 L 1092,121 L 1110,122 L 1128,123 L 1146,123 L 1164,122 L 1182,122 L 1200,121 L 1218,120 L 1236,119 L 1254,118 L 1272,117 L 1290,116 L 1308,116 L 1326,115 L 1344,115 L 1362,114 L 1380,114 L 1398,115 L 1416,115 L 1434,116 L 1452,117 L 1470,118 L 1488,119 L 1506,120 L 1524,121 L 1542,121 L 1560,122 L 1578,121 L 1596,121 L 1614,120 L 1632,118 L 1650,116" fill="none" stroke="#6c7eb2" stroke-width="1.50" stroke-linecap="round"/>
    <path d="M -60,144 L -42,143 L -24,141 L -6,139 L 12,138 L 30,136 L 48,134 L 66,132 L 84,130 L 102,128 L 120,126 L 138,124 L 156,122 L 174,119 L 192,117 L 210,115 L 228,113 L 246,111 L 264,109 L 282,107 L 300,104 L 318,102 L 336,100 L 354,99 L 372,97 L 390,95 L 408,93 L 426,92 L 444,90 L 462,89 L 480,88 L 498,86 L 516,86 L 534,85 L 552,84 L 570,84 L 588,84 L 606,84 L 624,84 L 642,85 L 660,86 L 678,87 L 696,88 L 714,90 L 732,92 L 750,94 L 768,97 L 786,100 L 804,103 L 822,106 L 840,110 L 858,113 L 876,117 L 894,121 L 912,125 L 930,129 L 948,133 L 966,136 L 984,140 L 1002,143 L 1020,146 L 1038,148 L 1056,150 L 1074,152 L 1092,154 L 1110,155 L 1128,155 L 1146,155 L 1164,155 L 1182,155 L 1200,154 L 1218,153 L 1236,152 L 1254,151 L 1272,150 L 1290,148 L 1308,148 L 1326,147 L 1344,146 L 1362,146 L 1380,146 L 1398,146 L 1416,146 L 1434,147 L 1452,147 L 1470,148 L 1488,149 L 1506,150 L 1524,151 L 1542,151 L 1560,151 L 1578,151 L 1596,150 L 1614,149 L 1632,148 L 1650,145" fill="none" stroke="#6c7eb2" stroke-width="0.90" stroke-linecap="round"/>
    <path d="M -60,169 L -42,168 L -24,166 L -6,164 L 12,162 L 30,160 L 48,158 L 66,156 L 84,154 L 102,152 L 120,150 L 138,147 L 156,145 L 174,143 L 192,140 L 210,138 L 228,136 L 246,133 L 264,131 L 282,129 L 300,127 L 318,125 L 336,122 L 354,120 L 372,118 L 390,117 L 408,115 L 426,113 L 444,112 L 462,110 L 480,109 L 498,108 L 516,107 L 534,106 L 552,106 L 570,105 L 588,105 L 606,106 L 624,106 L 642,107 L 660,108 L 678,109 L 696,111 L 714,113 L 732,116 L 750,118 L 768,121 L 786,125 L 804,128 L 822,132 L 840,136 L 858,140 L 876,145 L 894,149 L 912,153 L 930,158 L 948,162 L 966,166 L 984,170 L 1002,174 L 1020,177 L 1038,180 L 1056,183 L 1074,185 L 1092,186 L 1110,188 L 1128,188 L 1146,189 L 1164,189 L 1182,188 L 1200,187 L 1218,186 L 1236,185 L 1254,184 L 1272,182 L 1290,181 L 1308,180 L 1326,179 L 1344,178 L 1362,177 L 1380,177 L 1398,177 L 1416,177 L 1434,177 L 1452,177 L 1470,178 L 1488,179 L 1506,179 L 1524,180 L 1542,180 L 1560,180 L 1578,180 L 1596,179 L 1614,177 L 1632,175 L 1650,173" fill="none" stroke="#6c7eb2" stroke-width="0.90" stroke-linecap="round"/>
    <path d="M -60,194 L -42,192 L -24,191 L -6,189 L 12,187 L 30,184 L 48,182 L 66,180 L 84,178 L 102,175 L 120,173 L 138,171 L 156,168 L 174,166 L 192,163 L 210,161 L 228,158 L 246,156 L 264,153 L 282,151 L 300,149 L 318,146 L 336,144 L 354,142 L 372,140 L 390,138 L 408,136 L 426,134 L 444,133 L 462,131 L 480,130 L 498,129 L 516,128 L 534,128 L 552,127 L 570,127 L 588,127 L 606,127 L 624,128 L 642,129 L 660,130 L 678,132 L 696,134 L 714,136 L 732,139 L 750,142 L 768,146 L 786,149 L 804,153 L 822,158 L 840,162 L 858,167 L 876,172 L 894,177 L 912,182 L 930,187 L 948,192 L 966,197 L 984,201 L 1002,205 L 1020,209 L 1038,212 L 1056,215 L 1074,218 L 1092,220 L 1110,221 L 1128,222 L 1146,222 L 1164,222 L 1182,222 L 1200,221 L 1218,220 L 1236,218 L 1254,217 L 1272,215 L 1290,214 L 1308,212 L 1326,211 L 1344,210 L 1362,209 L 1380,208 L 1398,207 L 1416,207 L 1434,207 L 1452,207 L 1470,208 L 1488,208 L 1506,208 L 1524,208 L 1542,208 L 1560,208 L 1578,207 L 1596,206 L 1614,205 L 1632,203 L 1650,200" fill="none" stroke="#6c7eb2" stroke-width="0.90" stroke-linecap="round"/>
    <path d="M -60,219 L -42,217 L -24,215 L -6,213 L 12,211 L 30,208 L 48,206 L 66,204 L 84,201 L 102,199 L 120,196 L 138,194 L 156,191 L 174,188 L 192,186 L 210,183 L 228,181 L 246,178 L 264,175 L 282,173 L 300,170 L 318,168 L 336,166 L 354,163 L 372,161 L 390,159 L 408,157 L 426,156 L 444,154 L 462,152 L 480,151 L 498,150 L 516,149 L 534,149 L 552,148 L 570,148 L 588,148 L 606,149 L 624,150 L 642,151 L 660,152 L 678,154 L 696,156 L 714,159 L 732,162 L 750,166 L 768,170 L 786,174 L 804,178 L 822,183 L 840,188 L 858,194 L 876,199 L 894,205 L 912,210 L 930,216 L 948,221 L 966,226 L 984,231 L 1002,236 L 1020,240 L 1038,244 L 1056,248 L 1074,250 L 1092,253 L 1110,254 L 1128,255 L 1146,256 L 1164,256 L 1182,255 L 1200,255 L 1218,253 L 1236,252 L 1254,250 L 1272,248 L 1290,246 L 1308,244 L 1326,243 L 1344,241 L 1362,240 L 1380,239 L 1398,238 L 1416,237 L 1434,237 L 1452,236 L 1470,236 L 1488,236 L 1506,236 L 1524,236 L 1542,236 L 1560,236 L 1578,235 L 1596,234 L 1614,232 L 1632,230 L 1650,227" fill="none" stroke="#6c7eb2" stroke-width="1.50" stroke-linecap="round"/>
    <path d="M -60,243 L -42,241 L -24,239 L -6,237 L 12,235 L 30,232 L 48,230 L 66,227 L 84,225 L 102,222 L 120,219 L 138,217 L 156,214 L 174,211 L 192,208 L 210,206 L 228,203 L 246,200 L 264,197 L 282,195 L 300,192 L 318,189 L 336,187 L 354,185 L 372,182 L 390,180 L 408,178 L 426,176 L 444,175 L 462,173 L 480,172 L 498,171 L 516,170 L 534,169 L 552,169 L 570,169 L 588,169 L 606,170 L 624,171 L 642,172 L 660,174 L 678,176 L 696,179 L 714,182 L 732,185 L 750,189 L 768,193 L 786,198 L 804,203 L 822,208 L 840,214 L 858,220 L 876,226 L 894,232 L 912,238 L 930,244 L 948,250 L 966,256 L 984,262 L 1002,267 L 1020,271 L 1038,276 L 1056,279 L 1074,283 L 1092,285 L 1110,287 L 1128,288 L 1146,289 L 1164,289 L 1182,288 L 1200,288 L 1218,286 L 1236,284 L 1254,282 L 1272,280 L 1290,278 L 1308,276 L 1326,274 L 1344,272 L 1362,270 L 1380,269 L 1398,267 L 1416,266 L 1434,265 L 1452,265 L 1470,264 L 1488,264 L 1506,264 L 1524,263 L 1542,263 L 1560,262 L 1578,261 L 1596,260 L 1614,258 L 1632,255 L 1650,253" fill="none" stroke="#6c7eb2" stroke-width="0.90" stroke-linecap="round"/>
    <path d="M -60,268 L -42,266 L -24,264 L -6,261 L 12,259 L 30,256 L 48,254 L 66,251 L 84,248 L 102,246 L 120,243 L 138,240 L 156,237 L 174,234 L 192,231 L 210,228 L 228,225 L 246,222 L 264,219 L 282,216 L 300,214 L 318,211 L 336,208 L 354,206 L 372,204 L 390,201 L 408,199 L 426,197 L 444,196 L 462,194 L 480,193 L 498,192 L 516,191 L 534,190 L 552,190 L 570,190 L 588,190 L 606,191 L 624,192 L 642,194 L 660,196 L 678,198 L 696,201 L 714,204 L 732,208 L 750,212 L 768,217 L 786,222 L 804,228 L 822,233 L 840,240 L 858,246 L 876,253 L 894,259 L 912,266 L 930,273 L 948,279 L 966,286 L 984,292 L 1002,298 L 1020,303 L 1038,308 L 1056,312 L 1074,315 L 1092,318 L 1110,320 L 1128,322 L 1146,322 L 1164,322 L 1182,322 L 1200,321 L 1218,319 L 1236,318 L 1254,315 L 1272,313 L 1290,310 L 1308,308 L 1326,305 L 1344,303 L 1362,301 L 1380,299 L 1398,297 L 1416,296 L 1434,295 L 1452,294 L 1470,293 L 1488,292 L 1506,292 L 1524,291 L 1542,290 L 1560,289 L 1578,288 L 1596,286 L 1614,284 L 1632,282 L 1650,279" fill="none" stroke="#6c7eb2" stroke-width="0.90" stroke-linecap="round"/>
    <path d="M -60,293 L -42,291 L -24,289 L -6,286 L 12,284 L 30,281 L 48,278 L 66,275 L 84,273 L 102,270 L 120,267 L 138,264 L 156,260 L 174,257 L 192,254 L 210,251 L 228,248 L 246,245 L 264,242 L 282,239 L 300,236 L 318,233 L 336,231 L 354,228 L 372,226 L 390,223 L 408,221 L 426,219 L 444,217 L 462,216 L 480,215 L 498,214 L 516,213 L 534,212 L 552,212 L 570,212 L 588,213 L 606,214 L 624,215 L 642,217 L 660,219 L 678,222 L 696,225 L 714,229 L 732,233 L 750,237 L 768,243 L 786,248 L 804,254 L 822,260 L 840,267 L 858,274 L 876,281 L 894,289 L 912,296 L 930,304 L 948,311 L 966,318 L 984,324 L 1002,331 L 1020,336 L 1038,342 L 1056,346 L 1074,350 L 1092,353 L 1110,356 L 1128,358 L 1146,359 L 1164,359 L 1182,358 L 1200,357 L 1218,356 L 1236,354 L 1254,352 L 1272,349 L 1290,346 L 1308,343 L 1326,341 L 1344,338 L 1362,335 L 1380,333 L 1398,331 L 1416,329 L 1434,328 L 1452,326 L 1470,325 L 1488,324 L 1506,323 L 1524,322 L 1542,321 L 1560,320 L 1578,319 L 1596,317 L 1614,315 L 1632,313 L 1650,310" fill="none" stroke="#6c7eb2" stroke-width="0.90" stroke-linecap="round"/>
    <path d="M -60,319 L -42,316 L -24,314 L -6,311 L 12,309 L 30,306 L 48,303 L 66,300 L 84,297 L 102,294 L 120,291 L 138,288 L 156,285 L 174,282 L 192,278 L 210,275 L 228,272 L 246,269 L 264,266 L 282,263 L 300,260 L 318,257 L 336,254 L 354,252 L 372,249 L 390,247 L 408,245 L 426,243 L 444,241 L 462,239 L 480,238 L 498,237 L 516,237 L 534,236 L 552,236 L 570,237 L 588,237 L 606,238 L 624,240 L 642,242 L 660,245 L 678,248 L 696,251 L 714,255 L 732,260 L 750,265 L 768,271 L 786,277 L 804,284 L 822,291 L 840,298 L 858,306 L 876,313 L 894,321 L 912,329 L 930,337 L 948,345 L 966,353 L 984,360 L 1002,367 L 1020,374 L 1038,379 L 1056,385 L 1074,389 L 1092,393 L 1110,395 L 1128,397 L 1146,399 L 1164,399 L 1182,399 L 1200,398 L 1218,396 L 1236,394 L 1254,392 L 1272,389 L 1290,386 L 1308,383 L 1326,380 L 1344,377 L 1362,374 L 1380,371 L 1398,369 L 1416,367 L 1434,365 L 1452,363 L 1470,362 L 1488,360 L 1506,359 L 1524,358 L 1542,357 L 1560,356 L 1578,354 L 1596,352 L 1614,350 L 1632,348 L 1650,345" fill="none" stroke="#6c7eb2" stroke-width="1.50" stroke-linecap="round"/>
    <path d="M -60,345 L -42,342 L -24,340 L -6,337 L 12,335 L 30,332 L 48,329 L 66,326 L 84,323 L 102,320 L 120,317 L 138,313 L 156,310 L 174,307 L 192,304 L 210,300 L 228,297 L 246,294 L 264,291 L 282,288 L 300,285 L 318,282 L 336,279 L 354,276 L 372,274 L 390,272 L 408,270 L 426,268 L 444,266 L 462,265 L 480,263 L 498,263 L 516,262 L 534,262 L 552,262 L 570,263 L 588,263 L 606,265 L 624,267 L 642,269 L 660,272 L 678,275 L 696,279 L 714,284 L 732,289 L 750,295 L 768,301 L 786,307 L 804,314 L 822,322 L 840,330 L 858,338 L 876,347 L 894,355 L 912,364 L 930,372 L 948,381 L 966,389 L 984,397 L 1002,404 L 1020,411 L 1038,418 L 1056,423 L 1074,428 L 1092,432 L 1110,435 L 1128,437 L 1146,438 L 1164,439 L 1182,438 L 1200,437 L 1218,436 L 1236,433 L 1254,431 L 1272,428 L 1290,424 L 1308,421 L 1326,417 L 1344,413 L 1362,410 L 1380,407 L 1398,404 L 1416,401 L 1434,398 L 1452,396 L 1470,394 L 1488,392 L 1506,390 L 1524,388 L 1542,387 L 1560,385 L 1578,383 L 1596,381 L 1614,378 L 1632,375 L 1650,372" fill="none" stroke="#6c7eb2" stroke-width="0.90" stroke-linecap="round"/>
    <path d="M -60,371 L -42,369 L -24,366 L -6,364 L 12,361 L 30,358 L 48,355 L 66,352 L 84,349 L 102,346 L 120,343 L 138,339 L 156,336 L 174,333 L 192,329 L 210,326 L 228,323 L 246,319 L 264,316 L 282,313 L 300,310 L 318,307 L 336,304 L 354,302 L 372,299 L 390,297 L 408,295 L 426,293 L 444,291 L 462,290 L 480,289 L 498,288 L 516,288 L 534,287 L 552,288 L 570,288 L 588,290 L 606,291 L 624,293 L 642,296 L 660,299 L 678,303 L 696,307 L 714,312 L 732,317 L 750,323 L 768,329 L 786,336 L 804,344 L 822,352 L 840,360 L 858,368 L 876,377 L 894,386 L 912,395 L 930,404 L 948,413 L 966,422 L 984,430 L 1002,437 L 1020,445 L 1038,451 L 1056,457 L 1074,461 L 1092,465 L 1110,468 L 1128,470 L 1146,472 L 1164,472 L 1182,471 L 1200,470 L 1218,468 L 1236,465 L 1254,462 L 1272,458 L 1290,454 L 1308,450 L 1326,445 L 1344,441 L 1362,437 L 1380,433 L 1398,429 L 1416,425 L 1434,421 L 1452,418 L 1470,415 L 1488,412 L 1506,410 L 1524,407 L 1542,405 L 1560,402 L 1578,400 L 1596,397 L 1614,394 L 1632,390 L 1650,387" fill="none" stroke="#6c7eb2" stroke-width="0.90" stroke-linecap="round"/>
    <path d="M -60,398 L -42,396 L -24,393 L -6,390 L 12,388 L 30,385 L 48,382 L 66,379 L 84,375 L 102,372 L 120,369 L 138,365 L 156,362 L 174,359 L 192,355 L 210,352 L 228,348 L 246,345 L 264,342 L 282,338 L 300,335 L 318,332 L 336,329 L 354,327 L 372,324 L 390,322 L 408,320 L 426,318 L 444,316 L 462,314 L 480,313 L 498,312 L 516,312 L 534,312 L 552,312 L 570,313 L 588,314 L 606,316 L 624,318 L 642,320 L 660,324 L 678,327 L 696,332 L 714,336 L 732,342 L 750,348 L 768,355 L 786,362 L 804,369 L 822,378 L 840,386 L 858,395 L 876,404 L 894,413 L 912,422 L 930,431 L 948,440 L 966,449 L 984,457 L 1002,465 L 1020,472 L 1038,479 L 1056,485 L 1074,489 L 1092,493 L 1110,496 L 1128,498 L 1146,499 L 1164,499 L 1182,498 L 1200,496 L 1218,494 L 1236,491 L 1254,487 L 1272,482 L 1290,478 L 1308,473 L 1326,468 L 1344,463 L 1362,458 L 1380,453 L 1398,448 L 1416,443 L 1434,439 L 1452,435 L 1470,431 L 1488,428 L 1506,425 L 1524,421 L 1542,418 L 1560,415 L 1578,412 L 1596,409 L 1614,406 L 1632,402 L 1650,398" fill="none" stroke="#6c7eb2" stroke-width="0.90" stroke-linecap="round"/>
    <path d="M -60,425 L -42,423 L -24,420 L -6,417 L 12,414 L 30,411 L 48,408 L 66,405 L 84,402 L 102,398 L 120,395 L 138,391 L 156,388 L 174,384 L 192,381 L 210,377 L 228,373 L 246,370 L 264,366 L 282,363 L 300,360 L 318,357 L 336,353 L 354,351 L 372,348 L 390,345 L 408,343 L 426,341 L 444,339 L 462,338 L 480,336 L 498,335 L 516,335 L 534,335 L 552,335 L 570,336 L 588,337 L 606,338 L 624,340 L 642,343 L 660,346 L 678,350 L 696,354 L 714,359 L 732,365 L 750,371 L 768,378 L 786,385 L 804,393 L 822,401 L 840,410 L 858,419 L 876,428 L 894,437 L 912,447 L 930,456 L 948,465 L 966,474 L 984,483 L 1002,491 L 1020,498 L 1038,505 L 1056,510 L 1074,515 L 1092,519 L 1110,522 L 1128,524 L 1146,525 L 1164,525 L 1182,523 L 1200,521 L 1218,519 L 1236,515 L 1254,511 L 1272,506 L 1290,501 L 1308,496 L 1326,490 L 1344,485 L 1362,479 L 1380,474 L 1398,468 L 1416,463 L 1434,458 L 1452,454 L 1470,450 L 1488,446 L 1506,442 L 1524,438 L 1542,435 L 1560,431 L 1578,428 L 1596,425 L 1614,421 L 1632,418 L 1650,414" fill="none" stroke="#6c7eb2" stroke-width="1.50" stroke-linecap="round"/>
    <path d="M -60,452 L -42,450 L -24,447 L -6,444 L 12,441 L 30,438 L 48,435 L 66,431 L 84,428 L 102,424 L 120,420 L 138,417 L 156,413 L 174,409 L 192,405 L 210,402 L 228,398 L 246,394 L 264,390 L 282,387 L 300,383 L 318,380 L 336,377 L 354,374 L 372,371 L 390,368 L 408,366 L 426,363 L 444,361 L 462,360 L 480,358 L 498,357 L 516,357 L 534,357 L 552,357 L 570,357 L 588,358 L 606,360 L 624,362 L 642,365 L 660,368 L 678,372 L 696,376 L 714,382 L 732,387 L 750,394 L 768,400 L 786,408 L 804,416 L 822,424 L 840,433 L 858,442 L 876,452 L 894,461 L 912,471 L 930,481 L 948,490 L 966,499 L 984,508 L 1002,516 L 1020,523 L 1038,530 L 1056,536 L 1074,541 L 1092,545 L 1110,548 L 1128,550 L 1146,551 L 1164,551 L 1182,550 L 1200,548 L 1218,545 L 1236,541 L 1254,537 L 1272,532 L 1290,526 L 1308,521 L 1326,515 L 1344,509 L 1362,503 L 1380,497 L 1398,491 L 1416,486 L 1434,480 L 1452,475 L 1470,471 L 1488,466 L 1506,462 L 1524,458 L 1542,455 L 1560,451 L 1578,448 L 1596,444 L 1614,441 L 1632,437 L 1650,433" fill="none" stroke="#6c7eb2" stroke-width="0.90" stroke-linecap="round"/>
    <path d="M -60,479 L -42,476 L -24,473 L -6,470 L 12,467 L 30,464 L 48,460 L 66,457 L 84,453 L 102,449 L 120,445 L 138,442 L 156,438 L 174,434 L 192,430 L 210,426 L 228,422 L 246,418 L 264,414 L 282,410 L 300,406 L 318,403 L 336,399 L 354,396 L 372,393 L 390,390 L 408,388 L 426,385 L 444,383 L 462,382 L 480,380 L 498,379 L 516,378 L 534,378 L 552,378 L 570,379 L 588,380 L 606,382 L 624,384 L 642,387 L 660,390 L 678,394 L 696,399 L 714,404 L 732,410 L 750,416 L 768,423 L 786,431 L 804,439 L 822,448 L 840,457 L 858,466 L 876,476 L 894,486 L 912,496 L 930,506 L 948,515 L 966,524 L 984,533 L 1002,542 L 1020,550 L 1038,556 L 1056,563 L 1074,568 L 1092,572 L 1110,575 L 1128,577 L 1146,578 L 1164,578 L 1182,577 L 1200,575 L 1218,572 L 1236,568 L 1254,564 L 1272,558 L 1290,553 L 1308,547 L 1326,541 L 1344,535 L 1362,528 L 1380,522 L 1398,516 L 1416,510 L 1434,504 L 1452,499 L 1470,494 L 1488,489 L 1506,485 L 1524,481 L 1542,477 L 1560,473 L 1578,469 L 1596,465 L 1614,462 L 1632,458 L 1650,454" fill="none" stroke="#6c7eb2" stroke-width="0.90" stroke-linecap="round"/>
    <path d="M -60,505 L -42,502 L -24,499 L -6,496 L 12,492 L 30,489 L 48,485 L 66,482 L 84,478 L 102,474 L 120,470 L 138,466 L 156,462 L 174,457 L 192,453 L 210,449 L 228,445 L 246,441 L 264,437 L 282,433 L 300,429 L 318,425 L 336,422 L 354,418 L 372,415 L 390,412 L 408,410 L 426,407 L 444,405 L 462,403 L 480,402 L 498,401 L 516,400 L 534,400 L 552,400 L 570,401 L 588,402 L 606,404 L 624,406 L 642,409 L 660,412 L 678,416 L 696,421 L 714,426 L 732,432 L 750,439 L 768,446 L 786,454 L 804,463 L 822,471 L 840,481 L 858,490 L 876,500 L 894,510 L 912,520 L 930,530 L 948,540 L 966,550 L 984,559 L 1002,568 L 1020,575 L 1038,583 L 1056,589 L 1074,594 L 1092,599 L 1110,602 L 1128,604 L 1146,605 L 1164,605 L 1182,604 L 1200,602 L 1218,599 L 1236,595 L 1254,591 L 1272,585 L 1290,580 L 1308,574 L 1326,567 L 1344,561 L 1362,554 L 1380,548 L 1398,541 L 1416,535 L 1434,529 L 1452,524 L 1470,518 L 1488,513 L 1506,508 L 1524,504 L 1542,500 L 1560,496 L 1578,492 L 1596,488 L 1614,484 L 1632,481 L 1650,477" fill="none" stroke="#6c7eb2" stroke-width="0.90" stroke-linecap="round"/>
    <path d="M -60,530 L -42,527 L -24,524 L -6,521 L 12,517 L 30,514 L 48,510 L 66,506 L 84,502 L 102,498 L 120,494 L 138,489 L 156,485 L 174,481 L 192,476 L 210,472 L 228,468 L 246,463 L 264,459 L 282,455 L 300,451 L 318,447 L 336,444 L 354,440 L 372,437 L 390,434 L 408,431 L 426,429 L 444,426 L 462,425 L 480,423 L 498,422 L 516,421 L 534,421 L 552,421 L 570,422 L 588,423 L 606,425 L 624,428 L 642,431 L 660,434 L 678,438 L 696,443 L 714,449 L 732,455 L 750,462 L 768,469 L 786,477 L 804,486 L 822,495 L 840,504 L 858,514 L 876,524 L 894,534 L 912,544 L 930,555 L 948,565 L 966,574 L 984,584 L 1002,592 L 1020,600 L 1038,608 L 1056,614 L 1074,620 L 1092,624 L 1110,627 L 1128,630 L 1146,631 L 1164,631 L 1182,630 L 1200,628 L 1218,625 L 1236,621 L 1254,617 L 1272,611 L 1290,606 L 1308,599 L 1326,593 L 1344,586 L 1362,580 L 1380,573 L 1398,566 L 1416,560 L 1434,554 L 1452,548 L 1470,542 L 1488,537 L 1506,532 L 1524,527 L 1542,523 L 1560,519 L 1578,515 L 1596,511 L 1614,507 L 1632,503 L 1650,500" fill="none" stroke="#6c7eb2" stroke-width="1.50" stroke-linecap="round"/>
    <path d="M -60,555 L -42,552 L -24,548 L -6,545 L 12,541 L 30,538 L 48,534 L 66,530 L 84,526 L 102,521 L 120,517 L 138,512 L 156,508 L 174,503 L 192,499 L 210,494 L 228,490 L 246,486 L 264,481 L 282,477 L 300,473 L 318,469 L 336,465 L 354,462 L 372,458 L 390,455 L 408,452 L 426,450 L 444,448 L 462,446 L 480,444 L 498,443 L 516,443 L 534,442 L 552,443 L 570,443 L 588,445 L 606,447 L 624,449 L 642,452 L 660,456 L 678,460 L 696,465 L 714,471 L 732,477 L 750,484 L 768,491 L 786,499 L 804,508 L 822,517 L 840,526 L 858,536 L 876,546 L 894,557 L 912,567 L 930,577 L 948,587 L 966,597 L 984,606 L 1002,615 L 1020,623 L 1038,630 L 1056,637 L 1074,642 L 1092,647 L 1110,650 L 1128,653 L 1146,654 L 1164,654 L 1182,653 L 1200,651 L 1218,648 L 1236,644 L 1254,640 L 1272,635 L 1290,629 L 1308,622 L 1326,616 L 1344,609 L 1362,602 L 1380,595 L 1398,589 L 1416,582 L 1434,576 L 1452,570 L 1470,564 L 1488,558 L 1506,553 L 1524,548 L 1542,544 L 1560,539 L 1578,535 L 1596,532 L 1614,528 L 1632,524 L 1650,521" fill="none" stroke="#6c7eb2" stroke-width="0.90" stroke-linecap="round"/>
    <path d="M -60,579 L -42,576 L -24,572 L -6,569 L 12,565 L 30,561 L 48,557 L 66,553 L 84,549 L 102,544 L 120,540 L 138,535 L 156,530 L 174,526 L 192,521 L 210,516 L 228,512 L 246,507 L 264,503 L 282,498 L 300,494 L 318,490 L 336,486 L 354,482 L 372,479 L 390,476 L 408,473 L 426,470 L 444,468 L 462,466 L 480,465 L 498,464 L 516,463 L 534,463 L 552,463 L 570,464 L 588,465 L 606,467 L 624,469 L 642,473 L 660,476 L 678,481 L 696,485 L 714,491 L 732,497 L 750,504 L 768,512 L 786,520 L 804,528 L 822,537 L 840,547 L 858,557 L 876,567 L 894,577 L 912,587 L 930,597 L 948,607 L 966,617 L 984,626 L 1002,635 L 1020,643 L 1038,650 L 1056,657 L 1074,662 L 1092,667 L 1110,670 L 1128,672 L 1146,674 L 1164,674 L 1182,673 L 1200,671 L 1218,668 L 1236,664 L 1254,659 L 1272,654 L 1290,648 L 1308,642 L 1326,635 L 1344,629 L 1362,622 L 1380,615 L 1398,608 L 1416,601 L 1434,594 L 1452,588 L 1470,582 L 1488,576 L 1506,571 L 1524,566 L 1542,562 L 1560,557 L 1578,553 L 1596,549 L 1614,545 L 1632,542 L 1650,538" fill="none" stroke="#6c7eb2" stroke-width="0.90" stroke-linecap="round"/>
    <path d="M -60,603 L -42,600 L -24,596 L -6,592 L 12,589 L 30,585 L 48,580 L 66,576 L 84,572 L 102,567 L 120,562 L 138,557 L 156,553 L 174,548 L 192,543 L 210,538 L 228,533 L 246,529 L 264,524 L 282,519 L 300,515 L 318,511 L 336,507 L 354,503 L 372,499 L 390,496 L 408,493 L 426,491 L 444,488 L 462,486 L 480,485 L 498,484 L 516,483 L 534,483 L 552,483 L 570,484 L 588,485 L 606,487 L 624,489 L 642,492 L 660,496 L 678,500 L 696,505 L 714,511 L 732,517 L 750,524 L 768,531 L 786,539 L 804,548 L 822,557 L 840,566 L 858,576 L 876,586 L 894,596 L 912,606 L 930,616 L 948,626 L 966,635 L 984,644 L 1002,653 L 1020,661 L 1038,668 L 1056,674 L 1074,680 L 1092,684 L 1110,687 L 1128,690 L 1146,691 L 1164,691 L 1182,690 L 1200,688 L 1218,685 L 1236,681 L 1254,677 L 1272,672 L 1290,666 L 1308,659 L 1326,653 L 1344,646 L 1362,639 L 1380,632 L 1398,625 L 1416,618 L 1434,611 L 1452,605 L 1470,599 L 1488,593 L 1506,588 L 1524,583 L 1542,578 L 1560,574 L 1578,570 L 1596,566 L 1614,562 L 1632,559 L 1650,555" fill="none" stroke="#6c7eb2" stroke-width="0.90" stroke-linecap="round"/>
    <path d="M -60,627 L -42,624 L -24,620 L -6,616 L 12,612 L 30,608 L 48,604 L 66,599 L 84,595 L 102,590 L 120,585 L 138,580 L 156,575 L 174,570 L 192,565 L 210,560 L 228,555 L 246,550 L 264,546 L 282,541 L 300,537 L 318,532 L 336,528 L 354,524 L 372,521 L 390,517 L 408,514 L 426,512 L 444,509 L 462,507 L 480,506 L 498,504 L 516,504 L 534,503 L 552,504 L 570,505 L 588,506 L 606,508 L 624,510 L 642,513 L 660,517 L 678,521 L 696,526 L 714,532 L 732,538 L 750,545 L 768,552 L 786,560 L 804,569 L 822,577 L 840,587 L 858,596 L 876,606 L 894,616 L 912,626 L 930,636 L 948,645 L 966,655 L 984,664 L 1002,672 L 1020,680 L 1038,687 L 1056,694 L 1074,699 L 1092,703 L 1110,707 L 1128,709 L 1146,710 L 1164,711 L 1182,710 L 1200,708 L 1218,705 L 1236,702 L 1254,697 L 1272,692 L 1290,687 L 1308,681 L 1326,674 L 1344,668 L 1362,661 L 1380,654 L 1398,647 L 1416,640 L 1434,634 L 1452,628 L 1470,622 L 1488,616 L 1506,611 L 1524,606 L 1542,602 L 1560,597 L 1578,593 L 1596,590 L 1614,586 L 1632,583 L 1650,580" fill="none" stroke="#6c7eb2" stroke-width="1.50" stroke-linecap="round"/>
    <path d="M -60,652 L -42,648 L -24,645 L -6,641 L 12,637 L 30,632 L 48,628 L 66,623 L 84,619 L 102,614 L 120,609 L 138,604 L 156,599 L 174,594 L 192,589 L 210,584 L 228,579 L 246,574 L 264,569 L 282,564 L 300,560 L 318,555 L 336,551 L 354,547 L 372,544 L 390,540 L 408,537 L 426,535 L 444,532 L 462,530 L 480,529 L 498,528 L 516,527 L 534,527 L 552,528 L 570,529 L 588,530 L 606,532 L 624,535 L 642,538 L 660,542 L 678,546 L 696,551 L 714,557 L 732,563 L 750,570 L 768,577 L 786,585 L 804,594 L 822,603 L 840,612 L 858,622 L 876,631 L 894,641 L 912,651 L 930,661 L 948,671 L 966,680 L 984,689 L 1002,698 L 1020,706 L 1038,713 L 1056,719 L 1074,725 L 1092,730 L 1110,733 L 1128,736 L 1146,737 L 1164,738 L 1182,737 L 1200,736 L 1218,734 L 1236,730 L 1254,726 L 1272,722 L 1290,717 L 1308,711 L 1326,705 L 1344,699 L 1362,692 L 1380,686 L 1398,680 L 1416,673 L 1434,667 L 1452,661 L 1470,656 L 1488,651 L 1506,646 L 1524,641 L 1542,637 L 1560,633 L 1578,630 L 1596,627 L 1614,624 L 1632,621 L 1650,618" fill="none" stroke="#6c7eb2" stroke-width="0.90" stroke-linecap="round"/>
    <path d="M -60,677 L -42,673 L -24,670 L -6,666 L 12,662 L 30,657 L 48,653 L 66,648 L 84,643 L 102,639 L 120,634 L 138,629 L 156,624 L 174,619 L 192,614 L 210,609 L 228,604 L 246,599 L 264,594 L 282,589 L 300,585 L 318,581 L 336,577 L 354,573 L 372,569 L 390,566 L 408,563 L 426,561 L 444,559 L 462,557 L 480,556 L 498,555 L 516,555 L 534,555 L 552,555 L 570,556 L 588,558 L 606,560 L 624,563 L 642,567 L 660,571 L 678,575 L 696,581 L 714,586 L 732,593 L 750,600 L 768,607 L 786,616 L 804,624 L 822,633 L 840,642 L 858,652 L 876,662 L 894,672 L 912,682 L 930,692 L 948,701 L 966,711 L 984,720 L 1002,728 L 1020,736 L 1038,743 L 1056,750 L 1074,756 L 1092,760 L 1110,764 L 1128,767 L 1146,769 L 1164,769 L 1182,769 L 1200,768 L 1218,766 L 1236,763 L 1254,760 L 1272,755 L 1290,750 L 1308,745 L 1326,739 L 1344,734 L 1362,727 L 1380,721 L 1398,715 L 1416,709 L 1434,703 L 1452,698 L 1470,692 L 1488,687 L 1506,682 L 1524,678 L 1542,674 L 1560,670 L 1578,666 L 1596,663 L 1614,660 L 1632,657 L 1650,655" fill="none" stroke="#6c7eb2" stroke-width="0.90" stroke-linecap="round"/>
    <path d="M -60,703 L -42,699 L -24,696 L -6,692 L 12,688 L 30,683 L 48,679 L 66,674 L 84,670 L 102,665 L 120,660 L 138,655 L 156,650 L 174,645 L 192,640 L 210,635 L 228,630 L 246,626 L 264,621 L 282,617 L 300,612 L 318,608 L 336,604 L 354,601 L 372,597 L 390,594 L 408,592 L 426,589 L 444,588 L 462,586 L 480,585 L 498,584 L 516,584 L 534,585 L 552,585 L 570,587 L 588,589 L 606,591 L 624,594 L 642,598 L 660,602 L 678,607 L 696,612 L 714,618 L 732,624 L 750,631 L 768,639 L 786,647 L 804,655 L 822,664 L 840,673 L 858,683 L 876,693 L 894,702 L 912,712 L 930,722 L 948,731 L 966,740 L 984,749 L 1002,757 L 1020,765 L 1038,772 L 1056,778 L 1074,784 L 1092,788 L 1110,792 L 1128,794 L 1146,796 L 1164,797 L 1182,796 L 1200,795 L 1218,793 L 1236,790 L 1254,787 L 1272,782 L 1290,777 L 1308,772 L 1326,766 L 1344,760 L 1362,754 L 1380,748 L 1398,742 L 1416,735 L 1434,729 L 1452,723 L 1470,718 L 1488,712 L 1506,707 L 1524,702 L 1542,698 L 1560,694 L 1578,690 L 1596,686 L 1614,683 L 1632,679 L 1650,676" fill="none" stroke="#6c7eb2" stroke-width="0.90" stroke-linecap="round"/>
    <path d="M -60,730 L -42,726 L -24,722 L -6,719 L 12,715 L 30,710 L 48,706 L 66,702 L 84,697 L 102,692 L 120,688 L 138,683 L 156,678 L 174,673 L 192,668 L 210,663 L 228,659 L 246,654 L 264,649 L 282,645 L 300,641 L 318,637 L 336,633 L 354,630 L 372,627 L 390,624 L 408,621 L 426,619 L 444,617 L 462,616 L 480,615 L 498,614 L 516,614 L 534,615 L 552,616 L 570,617 L 588,619 L 606,622 L 624,625 L 642,628 L 660,632 L 678,637 L 696,642 L 714,648 L 732,654 L 750,661 L 768,669 L 786,676 L 804,684 L 822,693 L 840,702 L 858,711 L 876,720 L 894,729 L 912,738 L 930,748 L 948,756 L 966,765 L 984,773 L 1002,781 L 1020,788 L 1038,795 L 1056,801 L 1074,806 L 1092,810 L 1110,813 L 1128,815 L 1146,816 L 1164,817 L 1182,816 L 1200,815 L 1218,813 L 1236,809 L 1254,806 L 1272,801 L 1290,796 L 1308,791 L 1326,785 L 1344,779 L 1362,772 L 1380,766 L 1398,759 L 1416,753 L 1434,747 L 1452,741 L 1470,735 L 1488,729 L 1506,724 L 1524,719 L 1542,714 L 1560,709 L 1578,705 L 1596,701 L 1614,697 L 1632,694 L 1650,691" fill="none" stroke="#6c7eb2" stroke-width="1.50" stroke-linecap="round"/>
    <path d="M -60,757 L -42,754 L -24,750 L -6,746 L 12,742 L 30,738 L 48,734 L 66,730 L 84,725 L 102,720 L 120,716 L 138,711 L 156,706 L 174,701 L 192,697 L 210,692 L 228,687 L 246,683 L 264,678 L 282,674 L 300,670 L 318,666 L 336,662 L 354,659 L 372,656 L 390,653 L 408,650 L 426,648 L 444,646 L 462,645 L 480,644 L 498,644 L 516,644 L 534,644 L 552,645 L 570,646 L 588,648 L 606,651 L 624,654 L 642,657 L 660,661 L 678,666 L 696,671 L 714,676 L 732,682 L 750,689 L 768,696 L 786,703 L 804,711 L 822,719 L 840,727 L 858,736 L 876,744 L 894,753 L 912,762 L 930,770 L 948,779 L 966,787 L 984,794 L 1002,801 L 1020,808 L 1038,814 L 1056,819 L 1074,824 L 1092,828 L 1110,831 L 1128,832 L 1146,834 L 1164,834 L 1182,833 L 1200,831 L 1218,829 L 1236,826 L 1254,822 L 1272,818 L 1290,813 L 1308,807 L 1326,802 L 1344,795 L 1362,789 L 1380,783 L 1398,777 L 1416,770 L 1434,764 L 1452,758 L 1470,752 L 1488,746 L 1506,741 L 1524,736 L 1542,731 L 1560,727 L 1578,722 L 1596,718 L 1614,715 L 1632,711 L 1650,708" fill="none" stroke="#6c7eb2" stroke-width="0.90" stroke-linecap="round"/>
    <path d="M -60,785 L -42,782 L -24,778 L -6,774 L 12,771 L 30,766 L 48,762 L 66,758 L 84,753 L 102,749 L 120,744 L 138,739 L 156,735 L 174,730 L 192,725 L 210,720 L 228,716 L 246,711 L 264,707 L 282,702 L 300,698 L 318,694 L 336,691 L 354,687 L 372,684 L 390,681 L 408,679 L 426,677 L 444,675 L 462,674 L 480,673 L 498,672 L 516,672 L 534,672 L 552,673 L 570,674 L 588,676 L 606,679 L 624,681 L 642,685 L 660,688 L 678,693 L 696,698 L 714,703 L 732,709 L 750,715 L 768,721 L 786,728 L 804,736 L 822,743 L 840,751 L 858,759 L 876,767 L 894,776 L 912,784 L 930,792 L 948,800 L 966,807 L 984,814 L 1002,821 L 1020,827 L 1038,833 L 1056,838 L 1074,842 L 1092,845 L 1110,848 L 1128,850 L 1146,851 L 1164,851 L 1182,850 L 1200,849 L 1218,846 L 1236,843 L 1254,840 L 1272,836 L 1290,831 L 1308,826 L 1326,820 L 1344,815 L 1362,809 L 1380,803 L 1398,796 L 1416,790 L 1434,785 L 1452,779 L 1470,773 L 1488,768 L 1506,763 L 1524,758 L 1542,753 L 1560,749 L 1578,745 L 1596,741 L 1614,738 L 1632,734 L 1650,731" fill="none" stroke="#6c7eb2" stroke-width="0.90" stroke-linecap="round"/>
    <path d="M -60,813 L -42,810 L -24,806 L -6,803 L 12,799 L 30,795 L 48,791 L 66,786 L 84,782 L 102,777 L 120,773 L 138,768 L 156,763 L 174,758 L 192,754 L 210,749 L 228,744 L 246,740 L 264,735 L 282,731 L 300,727 L 318,723 L 336,719 L 354,716 L 372,712 L 390,710 L 408,707 L 426,705 L 444,703 L 462,702 L 480,701 L 498,700 L 516,700 L 534,700 L 552,701 L 570,702 L 588,704 L 606,706 L 624,709 L 642,712 L 660,716 L 678,720 L 696,724 L 714,729 L 732,735 L 750,741 L 768,747 L 786,754 L 804,760 L 822,768 L 840,775 L 858,783 L 876,790 L 894,798 L 912,806 L 930,813 L 948,821 L 966,828 L 984,835 L 1002,841 L 1020,847 L 1038,852 L 1056,857 L 1074,861 L 1092,864 L 1110,867 L 1128,868 L 1146,869 L 1164,869 L 1182,869 L 1200,867 L 1218,865 L 1236,863 L 1254,859 L 1272,855 L 1290,851 L 1308,846 L 1326,841 L 1344,836 L 1362,831 L 1380,825 L 1398,819 L 1416,814 L 1434,808 L 1452,803 L 1470,798 L 1488,793 L 1506,788 L 1524,783 L 1542,779 L 1560,775 L 1578,772 L 1596,768 L 1614,765 L 1632,762 L 1650,759" fill="none" stroke="#6c7eb2" stroke-width="0.90" stroke-linecap="round"/>
    <path d="M -60,841 L -42,838 L -24,834 L -6,831 L 12,827 L 30,823 L 48,819 L 66,814 L 84,810 L 102,805 L 120,801 L 138,796 L 156,791 L 174,786 L 192,782 L 210,777 L 228,772 L 246,768 L 264,763 L 282,759 L 300,755 L 318,751 L 336,747 L 354,744 L 372,740 L 390,738 L 408,735 L 426,733 L 444,731 L 462,730 L 480,728 L 498,728 L 516,728 L 534,728 L 552,729 L 570,730 L 588,731 L 606,733 L 624,736 L 642,739 L 660,743 L 678,746 L 696,751 L 714,756 L 732,761 L 750,766 L 768,772 L 786,779 L 804,785 L 822,792 L 840,799 L 858,806 L 876,814 L 894,821 L 912,828 L 930,835 L 948,842 L 966,849 L 984,855 L 1002,861 L 1020,867 L 1038,872 L 1056,876 L 1074,880 L 1092,883 L 1110,885 L 1128,887 L 1146,888 L 1164,888 L 1182,888 L 1200,887 L 1218,885 L 1236,882 L 1254,879 L 1272,876 L 1290,872 L 1308,868 L 1326,863 L 1344,858 L 1362,853 L 1380,848 L 1398,843 L 1416,838 L 1434,833 L 1452,828 L 1470,823 L 1488,819 L 1506,814 L 1524,810 L 1542,807 L 1560,803 L 1578,800 L 1596,796 L 1614,794 L 1632,791 L 1650,788" fill="none" stroke="#6c7eb2" stroke-width="1.50" stroke-linecap="round"/>
    <path d="M -60,869 L -42,865 L -24,862 L -6,858 L 12,854 L 30,850 L 48,846 L 66,842 L 84,838 L 102,833 L 120,828 L 138,824 L 156,819 L 174,814 L 192,809 L 210,805 L 228,800 L 246,795 L 264,791 L 282,787 L 300,782 L 318,778 L 336,775 L 354,771 L 372,768 L 390,765 L 408,763 L 426,761 L 444,759 L 462,757 L 480,756 L 498,756 L 516,755 L 534,756 L 552,756 L 570,757 L 588,759 L 606,761 L 624,763 L 642,766 L 660,769 L 678,773 L 696,777 L 714,782 L 732,787 L 750,792 L 768,798 L 786,804 L 804,810 L 822,817 L 840,823 L 858,830 L 876,837 L 894,844 L 912,850 L 930,857 L 948,864 L 966,870 L 984,876 L 1002,881 L 1020,886 L 1038,891 L 1056,895 L 1074,899 L 1092,902 L 1110,904 L 1128,906 L 1146,907 L 1164,907 L 1182,906 L 1200,905 L 1218,904 L 1236,902 L 1254,899 L 1272,896 L 1290,892 L 1308,888 L 1326,884 L 1344,880 L 1362,875 L 1380,871 L 1398,866 L 1416,861 L 1434,857 L 1452,852 L 1470,848 L 1488,844 L 1506,840 L 1524,836 L 1542,833 L 1560,829 L 1578,826 L 1596,823 L 1614,821 L 1632,818 L 1650,816" fill="none" stroke="#6c7eb2" stroke-width="0.90" stroke-linecap="round"/>
    <path d="M -60,895 L -42,892 L -24,889 L -6,885 L 12,881 L 30,877 L 48,873 L 66,869 L 84,864 L 102,860 L 120,855 L 138,851 L 156,846 L 174,841 L 192,836 L 210,832 L 228,827 L 246,822 L 264,818 L 282,814 L 300,810 L 318,806 L 336,802 L 354,798 L 372,795 L 390,792 L 408,790 L 426,788 L 444,786 L 462,784 L 480,783 L 498,783 L 516,782 L 534,783 L 552,783 L 570,784 L 588,786 L 606,788 L 624,790 L 642,793 L 660,796 L 678,799 L 696,803 L 714,808 L 732,812 L 750,817 L 768,823 L 786,828 L 804,834 L 822,840 L 840,846 L 858,852 L 876,859 L 894,865 L 912,872 L 930,878 L 948,884 L 966,890 L 984,895 L 1002,900 L 1020,905 L 1038,909 L 1056,913 L 1074,916 L 1092,919 L 1110,921 L 1128,923 L 1146,923 L 1164,924 L 1182,923 L 1200,922 L 1218,921 L 1236,919 L 1254,916 L 1272,913 L 1290,910 L 1308,907 L 1326,903 L 1344,899 L 1362,895 L 1380,890 L 1398,886 L 1416,882 L 1434,877 L 1452,873 L 1470,869 L 1488,865 L 1506,862 L 1524,858 L 1542,855 L 1560,852 L 1578,849 L 1596,847 L 1614,844 L 1632,842 L 1650,840" fill="none" stroke="#6c7eb2" stroke-width="0.90" stroke-linecap="round"/>
    <path d="M -60,921 L -42,918 L -24,914 L -6,911 L 12,907 L 30,903 L 48,899 L 66,895 L 84,890 L 102,886 L 120,881 L 138,876 L 156,872 L 174,867 L 192,862 L 210,858 L 228,853 L 246,848 L 264,844 L 282,840 L 300,836 L 318,832 L 336,828 L 354,825 L 372,821 L 390,818 L 408,816 L 426,814 L 444,812 L 462,810 L 480,809 L 498,808 L 516,808 L 534,808 L 552,809 L 570,810 L 588,811 L 606,813 L 624,815 L 642,817 L 660,820 L 678,823 L 696,827 L 714,831 L 732,836 L 750,840 L 768,845 L 786,850 L 804,856 L 822,861 L 840,867 L 858,873 L 876,879 L 894,884 L 912,890 L 930,896 L 948,901 L 966,907 L 984,912 L 1002,916 L 1020,920 L 1038,924 L 1056,928 L 1074,931 L 1092,933 L 1110,935 L 1128,936 L 1146,937 L 1164,937 L 1182,937 L 1200,936 L 1218,934 L 1236,932 L 1254,930 L 1272,927 L 1290,924 L 1308,921 L 1326,917 L 1344,913 L 1362,909 L 1380,905 L 1398,901 L 1416,897 L 1434,893 L 1452,889 L 1470,885 L 1488,882 L 1506,878 L 1524,875 L 1542,872 L 1560,869 L 1578,866 L 1596,864 L 1614,861 L 1632,859 L 1650,857" fill="none" stroke="#6c7eb2" stroke-width="0.90" stroke-linecap="round"/>
    <path d="M -60,946 L -42,943 L -24,939 L -6,936 L 12,932 L 30,928 L 48,924 L 66,919 L 84,915 L 102,910 L 120,906 L 138,901 L 156,896 L 174,892 L 192,887 L 210,882 L 228,878 L 246,873 L 264,869 L 282,864 L 300,860 L 318,856 L 336,853 L 354,849 L 372,846 L 390,843 L 408,840 L 426,838 L 444,836 L 462,834 L 480,833 L 498,832 L 516,832 L 534,832 L 552,832 L 570,833 L 588,834 L 606,835 L 624,837 L 642,840 L 660,842 L 678,845 L 696,848 L 714,852 L 732,856 L 750,860 L 768,865 L 786,869 L 804,874 L 822,879 L 840,884 L 858,890 L 876,895 L 894,900 L 912,905 L 930,910 L 948,915 L 966,920 L 984,924 L 1002,929 L 1020,932 L 1038,936 L 1056,939 L 1074,941 L 1092,943 L 1110,945 L 1128,946 L 1146,946 L 1164,946 L 1182,945 L 1200,944 L 1218,943 L 1236,941 L 1254,939 L 1272,936 L 1290,933 L 1308,930 L 1326,926 L 1344,923 L 1362,919 L 1380,915 L 1398,911 L 1416,907 L 1434,904 L 1452,900 L 1470,896 L 1488,893 L 1506,889 L 1524,886 L 1542,883 L 1560,880 L 1578,878 L 1596,875 L 1614,873 L 1632,870 L 1650,868" fill="none" stroke="#6c7eb2" stroke-width="1.50" stroke-linecap="round"/>
    <path d="M -60,970 L -42,967 L -24,964 L -6,960 L 12,956 L 30,952 L 48,948 L 66,944 L 84,939 L 102,935 L 120,930 L 138,925 L 156,921 L 174,916 L 192,911 L 210,906 L 228,902 L 246,897 L 264,892 L 282,888 L 300,884 L 318,880 L 336,876 L 354,873 L 372,869 L 390,866 L 408,864 L 426,861 L 444,859 L 462,857 L 480,856 L 498,855 L 516,854 L 534,854 L 552,854 L 570,855 L 588,856 L 606,857 L 624,859 L 642,861 L 660,863 L 678,866 L 696,869 L 714,872 L 732,875 L 750,879 L 768,883 L 786,887 L 804,892 L 822,896 L 840,901 L 858,906 L 876,911 L 894,915 L 912,920 L 930,924 L 948,929 L 966,933 L 984,937 L 1002,941 L 1020,944 L 1038,947 L 1056,949 L 1074,952 L 1092,953 L 1110,955 L 1128,956 L 1146,956 L 1164,956 L 1182,955 L 1200,954 L 1218,953 L 1236,951 L 1254,949 L 1272,947 L 1290,944 L 1308,941 L 1326,938 L 1344,935 L 1362,931 L 1380,928 L 1398,924 L 1416,921 L 1434,918 L 1452,914 L 1470,911 L 1488,908 L 1506,905 L 1524,902 L 1542,899 L 1560,897 L 1578,894 L 1596,892 L 1614,890 L 1632,888 L 1650,887" fill="none" stroke="#6c7eb2" stroke-width="0.90" stroke-linecap="round"/>
    <path d="M -60,995 L -42,991 L -24,988 L -6,984 L 12,980 L 30,976 L 48,972 L 66,968 L 84,963 L 102,959 L 120,954 L 138,949 L 156,945 L 174,940 L 192,935 L 210,930 L 228,926 L 246,921 L 264,917 L 282,912 L 300,908 L 318,904 L 336,900 L 354,897 L 372,893 L 390,890 L 408,888 L 426,885 L 444,883 L 462,881 L 480,880 L 498,879 L 516,878 L 534,878 L 552,878 L 570,879 L 588,879 L 606,880 L 624,882 L 642,884 L 660,886 L 678,889 L 696,891 L 714,895 L 732,898 L 750,902 L 768,905 L 786,909 L 804,914 L 822,918 L 840,922 L 858,927 L 876,931 L 894,936 L 912,940 L 930,944 L 948,949 L 966,953 L 984,956 L 1002,960 L 1020,963 L 1038,966 L 1056,969 L 1074,971 L 1092,973 L 1110,974 L 1128,975 L 1146,976 L 1164,976 L 1182,976 L 1200,975 L 1218,975 L 1236,973 L 1254,972 L 1272,970 L 1290,968 L 1308,966 L 1326,963 L 1344,961 L 1362,958 L 1380,956 L 1398,953 L 1416,950 L 1434,948 L 1452,945 L 1470,943 L 1488,940 L 1506,938 L 1524,936 L 1542,934 L 1560,932 L 1578,931 L 1596,929 L 1614,928 L 1632,927 L 1650,926" fill="none" stroke="#6c7eb2" stroke-width="0.90" stroke-linecap="round"/>
    <path d="M -60,1019 L -42,1016 L -24,1012 L -6,1008 L 12,1005 L 30,1001 L 48,996 L 66,992 L 84,988 L 102,983 L 120,979 L 138,974 L 156,969 L 174,965 L 192,960 L 210,956 L 228,951 L 246,946 L 264,942 L 282,938 L 300,934 L 318,930 L 336,926 L 354,923 L 372,920 L 390,917 L 408,914 L 426,912 L 444,910 L 462,909 L 480,907 L 498,906 L 516,906 L 534,906 L 552,906 L 570,907 L 588,908 L 606,909 L 624,910 L 642,912 L 660,915 L 678,917 L 696,920 L 714,923 L 732,927 L 750,930 L 768,934 L 786,938 L 804,943 L 822,947 L 840,951 L 858,956 L 876,960 L 894,965 L 912,969 L 930,973 L 948,978 L 966,982 L 984,986 L 1002,989 L 1020,993 L 1038,996 L 1056,999 L 1074,1001 L 1092,1003 L 1110,1005 L 1128,1006 L 1146,1007 L 1164,1008 L 1182,1008 L 1200,1008 L 1218,1008 L 1236,1008 L 1254,1007 L 1272,1005 L 1290,1004 L 1308,1003 L 1326,1001 L 1344,999 L 1362,997 L 1380,995 L 1398,993 L 1416,991 L 1434,990 L 1452,988 L 1470,986 L 1488,984 L 1506,983 L 1524,981 L 1542,980 L 1560,978 L 1578,977 L 1596,976 L 1614,975 L 1632,974 L 1650,974" fill="none" stroke="#6c7eb2" stroke-width="0.90" stroke-linecap="round"/>
    <path d="M -60,1044 L -42,1041 L -24,1037 L -6,1033 L 12,1030 L 30,1026 L 48,1022 L 66,1018 L 84,1013 L 102,1009 L 120,1005 L 138,1000 L 156,996 L 174,991 L 192,987 L 210,983 L 228,978 L 246,974 L 264,970 L 282,966 L 300,962 L 318,959 L 336,955 L 354,952 L 372,949 L 390,947 L 408,944 L 426,942 L 444,941 L 462,939 L 480,938 L 498,938 L 516,937 L 534,938 L 552,938 L 570,939 L 588,940 L 606,941 L 624,943 L 642,945 L 660,948 L 678,951 L 696,954 L 714,957 L 732,960 L 750,964 L 768,968 L 786,972 L 804,976 L 822,981 L 840,985 L 858,989 L 876,994 L 894,998 L 912,1003 L 930,1007 L 948,1011 L 966,1015 L 984,1019 L 1002,1023 L 1020,1026 L 1038,1029 L 1056,1032 L 1074,1034 L 1092,1037 L 1110,1038 L 1128,1040 L 1146,1041 L 1164,1042 L 1182,1042 L 1200,1043 L 1218,1043 L 1236,1042 L 1254,1042 L 1272,1041 L 1290,1040 L 1308,1038 L 1326,1037 L 1344,1035 L 1362,1034 L 1380,1032 L 1398,1030 L 1416,1028 L 1434,1027 L 1452,1025 L 1470,1023 L 1488,1021 L 1506,1020 L 1524,1018 L 1542,1017 L 1560,1015 L 1578,1014 L 1596,1013 L 1614,1011 L 1632,1010 L 1650,1009" fill="none" stroke="#6c7eb2" stroke-width="1.50" stroke-linecap="round"/>
    <path d="M -60,1069 L -42,1066 L -24,1063 L -6,1059 L 12,1056 L 30,1052 L 48,1048 L 66,1044 L 84,1040 L 102,1036 L 120,1032 L 138,1028 L 156,1024 L 174,1020 L 192,1016 L 210,1011 L 228,1007 L 246,1004 L 264,1000 L 282,996 L 300,993 L 318,989 L 336,986 L 354,983 L 372,981 L 390,979 L 408,976 L 426,975 L 444,973 L 462,972 L 480,972 L 498,971 L 516,971 L 534,971 L 552,972 L 570,973 L 588,974 L 606,976 L 624,978 L 642,980 L 660,982 L 678,985 L 696,988 L 714,991 L 732,995 L 750,998 L 768,1002 L 786,1006 L 804,1010 L 822,1014 L 840,1019 L 858,1023 L 876,1027 L 894,1031 L 912,1035 L 930,1039 L 948,1043 L 966,1047 L 984,1050 L 1002,1054 L 1020,1057 L 1038,1060 L 1056,1062 L 1074,1064 L 1092,1066 L 1110,1068 L 1128,1069 L 1146,1070 L 1164,1071 L 1182,1071 L 1200,1072 L 1218,1071 L 1236,1071 L 1254,1070 L 1272,1069 L 1290,1068 L 1308,1067 L 1326,1065 L 1344,1064 L 1362,1062 L 1380,1060 L 1398,1058 L 1416,1056 L 1434,1054 L 1452,1052 L 1470,1050 L 1488,1049 L 1506,1047 L 1524,1045 L 1542,1043 L 1560,1041 L 1578,1040 L 1596,1038 L 1614,1037 L 1632,1035 L 1650,1033" fill="none" stroke="#6c7eb2" stroke-width="0.90" stroke-linecap="round"/>
    <path d="M -60,1096 L -42,1093 L -24,1090 L -6,1087 L 12,1083 L 30,1080 L 48,1076 L 66,1073 L 84,1069 L 102,1065 L 120,1061 L 138,1057 L 156,1053 L 174,1049 L 192,1046 L 210,1042 L 228,1038 L 246,1034 L 264,1031 L 282,1027 L 300,1024 L 318,1021 L 336,1018 L 354,1016 L 372,1013 L 390,1011 L 408,1010 L 426,1008 L 444,1007 L 462,1006 L 480,1005 L 498,1005 L 516,1005 L 534,1005 L 552,1006 L 570,1007 L 588,1008 L 606,1010 L 624,1012 L 642,1014 L 660,1016 L 678,1019 L 696,1021 L 714,1025 L 732,1028 L 750,1031 L 768,1035 L 786,1038 L 804,1042 L 822,1046 L 840,1050 L 858,1054 L 876,1057 L 894,1061 L 912,1065 L 930,1068 L 948,1072 L 966,1075 L 984,1078 L 1002,1081 L 1020,1084 L 1038,1087 L 1056,1089 L 1074,1091 L 1092,1092 L 1110,1094 L 1128,1095 L 1146,1096 L 1164,1096 L 1182,1096 L 1200,1096 L 1218,1096 L 1236,1096 L 1254,1095 L 1272,1094 L 1290,1093 L 1308,1091 L 1326,1090 L 1344,1088 L 1362,1086 L 1380,1085 L 1398,1083 L 1416,1081 L 1434,1079 L 1452,1077 L 1470,1075 L 1488,1073 L 1506,1071 L 1524,1069 L 1542,1067 L 1560,1066 L 1578,1064 L 1596,1062 L 1614,1060 L 1632,1059 L 1650,1057" fill="none" stroke="#6c7eb2" stroke-width="0.90" stroke-linecap="round"/>
    <path d="M -60,1123 L -42,1121 L -24,1118 L -6,1115 L 12,1112 L 30,1108 L 48,1105 L 66,1102 L 84,1098 L 102,1095 L 120,1091 L 138,1087 L 156,1084 L 174,1080 L 192,1076 L 210,1073 L 228,1069 L 246,1066 L 264,1063 L 282,1059 L 300,1056 L 318,1054 L 336,1051 L 354,1048 L 372,1046 L 390,1044 L 408,1043 L 426,1041 L 444,1040 L 462,1039 L 480,1038 L 498,1038 L 516,1038 L 534,1038 L 552,1039 L 570,1040 L 588,1041 L 606,1043 L 624,1044 L 642,1046 L 660,1048 L 678,1051 L 696,1053 L 714,1056 L 732,1059 L 750,1062 L 768,1065 L 786,1069 L 804,1072 L 822,1075 L 840,1079 L 858,1082 L 876,1086 L 894,1089 L 912,1092 L 930,1096 L 948,1099 L 966,1102 L 984,1104 L 1002,1107 L 1020,1109 L 1038,1112 L 1056,1114 L 1074,1115 L 1092,1117 L 1110,1118 L 1128,1119 L 1146,1119 L 1164,1120 L 1182,1120 L 1200,1120 L 1218,1120 L 1236,1119 L 1254,1118 L 1272,1117 L 1290,1116 L 1308,1115 L 1326,1114 L 1344,1112 L 1362,1111 L 1380,1109 L 1398,1107 L 1416,1106 L 1434,1104 L 1452,1102 L 1470,1100 L 1488,1099 L 1506,1097 L 1524,1095 L 1542,1094 L 1560,1092 L 1578,1090 L 1596,1089 L 1614,1087 L 1632,1086 L 1650,1084" fill="none" stroke="#6c7eb2" stroke-width="0.90" stroke-linecap="round"/>
    <path d="M -60,1152 L -42,1149 L -24,1147 L -6,1144 L 12,1141 L 30,1138 L 48,1135 L 66,1132 L 84,1128 L 102,1125 L 120,1122 L 138,1118 L 156,1115 L 174,1111 L 192,1108 L 210,1104 L 228,1101 L 246,1098 L 264,1095 L 282,1092 L 300,1089 L 318,1086 L 336,1083 L 354,1081 L 372,1079 L 390,1077 L 408,1075 L 426,1074 L 444,1073 L 462,1072 L 480,1071 L 498,1071 L 516,1071 L 534,1071 L 552,1072 L 570,1072 L 588,1073 L 606,1075 L 624,1076 L 642,1078 L 660,1080 L 678,1082 L 696,1084 L 714,1087 L 732,1089 L 750,1092 L 768,1095 L 786,1098 L 804,1101 L 822,1104 L 840,1107 L 858,1110 L 876,1113 L 894,1116 L 912,1119 L 930,1122 L 948,1125 L 966,1127 L 984,1130 L 1002,1132 L 1020,1134 L 1038,1136 L 1056,1138 L 1074,1139 L 1092,1140 L 1110,1141 L 1128,1142 L 1146,1143 L 1164,1143 L 1182,1143 L 1200,1143 L 1218,1143 L 1236,1142 L 1254,1142 L 1272,1141 L 1290,1140 L 1308,1139 L 1326,1138 L 1344,1136 L 1362,1135 L 1380,1134 L 1398,1132 L 1416,1131 L 1434,1129 L 1452,1128 L 1470,1126 L 1488,1125 L 1506,1123 L 1524,1122 L 1542,1121 L 1560,1119 L 1578,1118 L 1596,1117 L 1614,1115 L 1632,1114 L 1650,1113" fill="none" stroke="#6c7eb2" stroke-width="1.50" stroke-linecap="round"/>
    <path d="M -60,1181 L -42,1179 L -24,1176 L -6,1174 L 12,1171 L 30,1168 L 48,1165 L 66,1162 L 84,1159 L 102,1156 L 120,1152 L 138,1149 L 156,1146 L 174,1143 L 192,1139 L 210,1136 L 228,1133 L 246,1130 L 264,1127 L 282,1124 L 300,1121 L 318,1119 L 336,1116 L 354,1114 L 372,1112 L 390,1110 L 408,1108 L 426,1107 L 444,1106 L 462,1105 L 480,1104 L 498,1104 L 516,1104 L 534,1104 L 552,1104 L 570,1105 L 588,1106 L 606,1107 L 624,1108 L 642,1110 L 660,1111 L 678,1113 L 696,1115 L 714,1117 L 732,1120 L 750,1122 L 768,1125 L 786,1127 L 804,1130 L 822,1133 L 840,1136 L 858,1138 L 876,1141 L 894,1144 L 912,1146 L 930,1149 L 948,1151 L 966,1153 L 984,1156 L 1002,1157 L 1020,1159 L 1038,1161 L 1056,1162 L 1074,1164 L 1092,1165 L 1110,1166 L 1128,1166 L 1146,1167 L 1164,1167 L 1182,1167 L 1200,1167 L 1218,1167 L 1236,1166 L 1254,1166 L 1272,1165 L 1290,1164 L 1308,1163 L 1326,1162 L 1344,1161 L 1362,1160 L 1380,1158 L 1398,1157 L 1416,1156 L 1434,1155 L 1452,1153 L 1470,1152 L 1488,1151 L 1506,1149 L 1524,1148 L 1542,1147 L 1560,1146 L 1578,1145 L 1596,1144 L 1614,1143 L 1632,1142 L 1650,1141" fill="none" stroke="#6c7eb2" stroke-width="0.90" stroke-linecap="round"/>
  </g>
</svg>