<svg xmlns="http://www.w3.org/2000/svg" viewBox="0 0 1200 900" width="1200" height="900">
  <circle cx="1200.0" cy="115.3" r="0.6" fill="#c8a860" opacity="0.19"/>
  <circle cx="850.5" cy="295.6" r="2.4" fill="#c8a860" opacity="0.31"/>
  <circle cx="1147.0" cy="397.6" r="0.6" fill="#c8a860" opacity="0.25"/>
  <circle cx="1013.2" cy="144.5" r="2.4" fill="#c8a860" opacity="0.67"/>
  <circle cx="1200.0" cy="288.7" r="1.7" fill="#e6cf92" opacity="0.43"/>
  <circle cx="1196.0" cy="516.8" r="1.7" fill="#c8a860" opacity="0.69"/>
  <circle cx="635.8" cy="6.4" r="1.0" fill="#c8a860" opacity="0.56"/>
  <circle cx="1200.0" cy="385.5" r="1.3" fill="#e6cf92" opacity="0.63"/>
  <circle cx="1200.0" cy="131.4" r="2.4" fill="#e6cf92" opacity="0.73"/>
  <circle cx="1195.3" cy="214.2" r="0.6" fill="#c8a860" opacity="0.56"/>
  <circle cx="994.3" cy="450.7" r="0.6" fill="#c8a860" opacity="0.43"/>
  <circle cx="883.4" cy="525.9" r="1.7" fill="#e6cf92" opacity="0.33"/>
  <circle cx="956.2" cy="63.4" r="1.3" fill="#c8a860" opacity="0.34"/>
  <circle cx="1200.0" cy="9.3" r="1.3" fill="#c8a860" opacity="0.29"/>
  <circle cx="1200.0" cy="227.6" r="0.6" fill="#e6cf92" opacity="0.29"/>
  <circle cx="1200.0" cy="157.3" r="2.4" fill="#c8a860" opacity="0.82"/>
  <circle cx="1200.0" cy="115.2" r="1.0" fill="#c8a860" opacity="0.19"/>
  <circle cx="987.9" cy="147.8" r="1.0" fill="#e6cf92" opacity="0.49"/>
  <circle cx="1200.0" cy="88.5" r="0.8" fill="#c8a860" opacity="0.24"/>
  <circle cx="776.2" cy="145.3" r="1.7" fill="#c8a860" opacity="0.72"/>
  <circle cx="443.2" cy="381.5" r="1.3" fill="#c8a860" opacity="0.69"/>
  <circle cx="906.6" cy="216.0" r="1.7" fill="#c8a860" opacity="0.64"/>
  <circle cx="858.4" cy="268.5" r="2.4" fill="#c8a860" opacity="0.68"/>
  <circle cx="827.6" cy="233.4" r="1.7" fill="#e6cf92" opacity="0.59"/>
  <circle cx="1063.5" cy="195.7" r="0.8" fill="#c8a860" opacity="0.4"/>
  <circle cx="1200.0" cy="8.0" r="2.4" fill="#c8a860" opacity="0.23"/>
  <circle cx="842.5" cy="99.5" r="1.7" fill="#c8a860" opacity="0.82"/>
  <circle cx="1200.0" cy="130.3" r="1.0" fill="#c8a860" opacity="0.43"/>
  <circle cx="1200.0" cy="509.9" r="0.8" fill="#e6cf92" opacity="0.71"/>
  <circle cx="766.3" cy="175.8" r="0.6" fill="#c8a860" opacity="0.46"/>
  <circle cx="225.2" cy="273.5" r="2.4" fill="#c8a860" opacity="0.55"/>
  <circle cx="867.3" cy="622.4" r="0.6" fill="#e6cf92" opacity="0.33"/>
  <circle cx="1200.0" cy="1.1" r="0.6" fill="#c8a860" opacity="0.63"/>
  <circle cx="1003.7" cy="342.4" r="1.0" fill="#c8a860" opacity="0.72"/>
  <circle cx="1200.0" cy="85.2" r="0.6" fill="#c8a860" opacity="0.46"/>
  <circle cx="657.3" cy="185.4" r="1.0" fill="#c8a860" opacity="0.54"/>
  <circle cx="549.8" cy="473.6" r="0.8" fill="#e6cf92" opacity="0.52"/>
  <circle cx="914.1" cy="171.6" r="1.7" fill="#e6cf92" opacity="0.7"/>
  <circle cx="1200.0" cy="238.3" r="0.6" fill="#c8a860" opacity="0.35"/>
  <circle cx="1014.0" cy="92.4" r="0.6" fill="#c8a860" opacity="0.36"/>
  <circle cx="1200.0" cy="499.1" r="0.6" fill="#c8a860" opacity="0.3"/>
  <circle cx="836.0" cy="1.9" r="0.6" fill="#c8a860" opacity="0.6"/>
  <circle cx="1003.2" cy="102.5" r="0.6" fill="#e6cf92" opacity="0.79"/>
  <circle cx="1200.0" cy="182.5" r="0.8" fill="#c8a860" opacity="0.8"/>
  <circle cx="1200.0" cy="25.7" r="0.6" fill="#c8a860" opacity="0.73"/>
  <circle cx="829.0" cy="30.9" r="0.8" fill="#e6cf92" opacity="0.41"/>
  <circle cx="1200.0" cy="739.8" r="1.0" fill="#e6cf92" opacity="0.69"/>
  <circle cx="401.5" cy="143.4" r="2.4" fill="#c8a860" opacity="0.42"/>
  <circle cx="1055.0" cy="389.0" r="1.0" fill="#c8a860" opacity="0.49"/>
  <circle cx="1200.0" cy="52.2" r="1.0" fill="#c8a860" opacity="0.43"/>
  <circle cx="1126.5" cy="86.0" r="1.3" fill="#e6cf92" opacity="0.41"/>
  <circle cx="963.5" cy="31.1" r="1.0" fill="#e6cf92" opacity="0.45"/>
  <circle cx="937.7" cy="370.3" r="0.8" fill="#c8a860" opacity="0.57"/>
  <circle cx="1087.5" cy="347.6" r="2.4" fill="#c8a860" opacity="0.38"/>
  <circle cx="821.3" cy="277.0" r="1.3" fill="#c8a860" opacity="0.83"/>
  <circle cx="826.0" cy="28.7" r="1.7" fill="#c8a860" opacity="0.3"/>
  <circle cx="1200.0" cy="519.0" r="0.6" fill="#e6cf92" opacity="0.49"/>
  <circle cx="912.2" cy="7.9" r="2.4" fill="#c8a860" opacity="0.2"/>
  <circle cx="1200.0" cy="83.2" r="2.4" fill="#c8a860" opacity="0.84"/>
  <circle cx="1044.0" cy="16.1" r="0.6" fill="#c8a860" opacity="0.68"/>
  <circle cx="533.9" cy="231.1" r="0.6" fill="#c8a860" opacity="0.46"/>
  <circle cx="1200.0" cy="88.9" r="0.6" fill="#c8a860" opacity="0.6"/>
  <circle cx="755.3" cy="34.7" r="0.8" fill="#c8a860" opacity="0.75"/>
  <circle cx="880.4" cy="481.5" r="1.3" fill="#c8a860" opacity="0.51"/>
  <circle cx="1151.2" cy="45.4" r="2.4" fill="#c8a860" opacity="0.19"/>
  <circle cx="425.4" cy="69.6" r="0.8" fill="#c8a860" opacity="0.22"/>
  <circle cx="1200.0" cy="555.4" r="2.4" fill="#c8a860" opacity="0.8"/>
  <circle cx="1200.0" cy="425.2" r="0.6" fill="#c8a860" opacity="0.74"/>
  <circle cx="1200.0" cy="200.2" r="2.4" fill="#c8a860" opacity="0.2"/>
  <circle cx="742.0" cy="76.2" r="2.4" fill="#c8a860" opacity="0.61"/>
  <circle cx="1200.0" cy="504.7" r="2.4" fill="#c8a860" opacity="0.63"/>
  <circle cx="1200.0" cy="471.2" r="1.3" fill="#c8a860" opacity="0.22"/>
  <circle cx="1200.0" cy="641.4" r="0.6" fill="#c8a860" opacity="0.58"/>
  <circle cx="1200.0" cy="255.4" r="1.3" fill="#c8a860" opacity="0.71"/>
  <circle cx="1200.0" cy="464.8" r="1.0" fill="#c8a860" opacity="0.61"/>
  <circle cx="223.4" cy="82.4" r="0.6" fill="#e6cf92" opacity="0.75"/>
  <circle cx="849.4" cy="453.5" r="1.7" fill="#e6cf92" opacity="0.2"/>
  <circle cx="853.4" cy="564.3" r="0.6" fill="#e6cf92" opacity="0.28"/>
  <circle cx="286.8" cy="174.7" r="1.7" fill="#c8a860" opacity="0.74"/>
  <circle cx="1147.7" cy="279.5" r="2.4" fill="#c8a860" opacity="0.54"/>
  <circle cx="1200.0" cy="29.8" r="0.6" fill="#c8a860" opacity="0.36"/>
  <circle cx="1200.0" cy="189.8" r="0.8" fill="#c8a860" opacity="0.26"/>
  <circle cx="1200.0" cy="282.2" r="1.3" fill="#c8a860" opacity="0.84"/>
  <circle cx="1200.0" cy="247.0" r="1.0" fill="#c8a860" opacity="0.6"/>
  <circle cx="1168.2" cy="436.9" r="0.8" fill="#c8a860" opacity="0.4"/>
  <circle cx="1200.0" cy="126.4" r="0.8" fill="#e6cf92" opacity="0.67"/>
  <circle cx="637.2" cy="18.1" r="0.6" fill="#e6cf92" opacity="0.48"/>
  <circle cx="1200.0" cy="63.3" r="2.4" fill="#c8a860" opacity="0.32"/>
  <circle cx="948.5" cy="31.5" r="1.3" fill="#c8a860" opacity="0.79"/>
  <circle cx="1200.0" cy="319.9" r="1.3" fill="#c8a860" opacity="0.43"/>
  <circle cx="1200.0" cy="572.3" r="0.6" fill="#c8a860" opacity="0.2"/>
  <circle cx="1170.6" cy="210.0" r="0.6" fill="#c8a860" opacity="0.75"/>
  <circle cx="710.0" cy="231.3" r="1.0" fill="#c8a860" opacity="0.81"/>
  <circle cx="1200.0" cy="84.8" r="1.0" fill="#c8a860" opacity="0.27"/>
  <circle cx="643.4" cy="59.3" r="1.7" fill="#c8a860" opacity="0.56"/>
  <circle cx="577.6" cy="117.7" r="0.8" fill="#c8a860" opacity="0.58"/>
  <circle cx="977.0" cy="258.6" r="0.6" fill="#c8a860" opacity="0.78"/>
  <circle cx="420.9" cy="0.8" r="1.3" fill="#c8a860" opacity="0.42"/>
  <circle cx="1174.7" cy="195.8" r="0.6" fill="#e6cf92" opacity="0.36"/>
  <circle cx="893.7" cy="37.1" r="1.0" fill="#c8a860" opacity="0.46"/>
  <circle cx="1084.0" cy="247.8" r="2.4" fill="#c8a860" opacity="0.53"/>
  <circle cx="1200.0" cy="91.2" r="0.8" fill="#c8a860" opacity="0.64"/>
  <circle cx="1200.0" cy="130.0" r="2.4" fill="#c8a860" opacity="0.4"/>
  <circle cx="809.1" cy="266.6" r="0.8" fill="#c8a860" opacity="0.57"/>
  <circle cx="1200.0" cy="216.1" r="1.0" fill="#c8a860" opacity="0.58"/>
  <circle cx="1200.0" cy="192.5" r="0.8" fill="#c8a860" opacity="0.26"/>
  <circle cx="1200.0" cy="19.8" r="0.6" fill="#c8a860" opacity="0.79"/>
  <circle cx="892.6" cy="596.3" r="1.3" fill="#c8a860" opacity="0.79"/>
  <circle cx="1199.6" cy="434.3" r="1.3" fill="#c8a860" opacity="0.78"/>
  <circle cx="999.9" cy="415.7" r="2.4" fill="#c8a860" opacity="0.71"/>
  <circle cx="1200.0" cy="220.0" r="1.7" fill="#c8a860" opacity="0.45"/>
  <circle cx="1118.7" cy="171.3" r="1.0" fill="#c8a860" opacity="0.79"/>
  <circle cx="854.7" cy="206.9" r="0.8" fill="#e6cf92" opacity="0.62"/>
  <circle cx="1200.0" cy="256.6" r="1.7" fill="#c8a860" opacity="0.31"/>
  <circle cx="379.2" cy="186.4" r="0.6" fill="#c8a860" opacity="0.72"/>
  <circle cx="875.5" cy="123.8" r="1.7" fill="#c8a860" opacity="0.84"/>
  <circle cx="1200.0" cy="494.6" r="1.3" fill="#c8a860" opacity="0.83"/>
  <circle cx="1200.0" cy="406.7" r="1.0" fill="#c8a860" opacity="0.3"/>
  <circle cx="1118.8" cy="315.1" r="2.4" fill="#c8a860" opacity="0.64"/>
  <circle cx="335.6" cy="451.9" r="1.3" fill="#c8a860" opacity="0.31"/>
  <circle cx="1200.0" cy="220.0" r="0.8" fill="#e6cf92" opacity="0.23"/>
  <circle cx="1119.6" cy="203.8" r="1.7" fill="#c8a860" opacity="0.2"/>
  <circle cx="902.4" cy="383.1" r="2.4" fill="#c8a860" opacity="0.69"/>
  <circle cx="1099.3" cy="225.7" r="0.8" fill="#e6cf92" opacity="0.18"/>
  <circle cx="1200.0" cy="697.5" r="0.8" fill="#c8a860" opacity="0.75"/>
  <circle cx="833.8" cy="211.6" r="1.3" fill="#c8a860" opacity="0.52"/>
  <circle cx="1178.1" cy="164.3" r="2.4" fill="#c8a860" opacity="0.29"/>
  <circle cx="1200.0" cy="94.5" r="0.6" fill="#e6cf92" opacity="0.56"/>
  <circle cx="695.0" cy="73.0" r="1.0" fill="#c8a860" opacity="0.69"/>
  <circle cx="605.4" cy="39.6" r="1.7" fill="#c8a860" opacity="0.75"/>
  <circle cx="936.6" cy="152.0" r="1.0" fill="#c8a860" opacity="0.75"/>
  <circle cx="719.5" cy="727.7" r="1.7" fill="#c8a860" opacity="0.68"/>
  <circle cx="1089.2" cy="100.4" r="2.4" fill="#e6cf92" opacity="0.79"/>
  <circle cx="1200.0" cy="27.7" r="1.7" fill="#c8a860" opacity="0.43"/>
  <circle cx="1200.0" cy="17.6" r="1.7" fill="#e6cf92" opacity="0.29"/>
  <circle cx="935.8" cy="130.5" r="1.3" fill="#e6cf92" opacity="0.56"/>
  <circle cx="1045.3" cy="374.7" r="0.6" fill="#c8a860" opacity="0.53"/>
  <circle cx="1126.1" cy="355.4" r="0.8" fill="#c8a860" opacity="0.54"/>
  <circle cx="824.6" cy="482.1" r="1.7" fill="#e6cf92" opacity="0.35"/>
  <circle cx="721.4" cy="534.9" r="1.7" fill="#c8a860" opacity="0.29"/>
  <circle cx="1022.5" cy="442.0" r="1.3" fill="#c8a860" opacity="0.29"/>
  <circle cx="1200.0" cy="167.4" r="1.7" fill="#c8a860" opacity="0.47"/>
  <circle cx="1200.0" cy="74.1" r="0.6" fill="#c8a860" opacity="0.57"/>
  <circle cx="1038.3" cy="4.4" r="1.7" fill="#c8a860" opacity="0.73"/>
  <circle cx="952.0" cy="120.0" r="1.3" fill="#c8a860" opacity="0.41"/>
  <circle cx="753.0" cy="57.5" r="0.6" fill="#c8a860" opacity="0.69"/>
  <circle cx="1200.0" cy="58.9" r="1.0" fill="#e6cf92" opacity="0.77"/>
  <circle cx="776.2" cy="421.3" r="1.0" fill="#c8a860" opacity="0.77"/>
  <circle cx="1141.7" cy="278.0" r="0.6" fill="#e6cf92" opacity="0.83"/>
  <circle cx="1200.0" cy="122.7" r="0.6" fill="#e6cf92" opacity="0.55"/>
  <circle cx="776.0" cy="108.2" r="1.0" fill="#e6cf92" opacity="0.59"/>
  <circle cx="962.9" cy="235.9" r="0.8" fill="#e6cf92" opacity="0.81"/>
  <circle cx="986.8" cy="319.1" r="1.0" fill="#c8a860" opacity="0.66"/>
  <circle cx="1117.6" cy="456.1" r="2.4" fill="#c8a860" opacity="0.47"/>
  <circle cx="623.4" cy="138.7" r="0.8" fill="#c8a860" opacity="0.63"/>
  <circle cx="840.0" cy="20.2" r="1.3" fill="#c8a860" opacity="0.39"/>
  <circle cx="783.0" cy="310.1" r="1.7" fill="#e6cf92" opacity="0.64"/>
  <circle cx="1066.8" cy="43.8" r="1.0" fill="#e6cf92" opacity="0.76"/>
  <circle cx="1200.0" cy="55.6" r="1.3" fill="#c8a860" opacity="0.67"/>
  <circle cx="1200.0" cy="21.2" r="2.4" fill="#c8a860" opacity="0.41"/>
  <circle cx="906.1" cy="232.9" r="2.4" fill="#c8a860" opacity="0.44"/>
  <circle cx="1200.0" cy="77.8" r="0.8" fill="#c8a860" opacity="0.26"/>
  <circle cx="1200.0" cy="313.8" r="0.6" fill="#c8a860" opacity="0.44"/>
  <circle cx="215.8" cy="71.8" r="2.4" fill="#c8a860" opacity="0.85"/>
  <circle cx="1200.0" cy="198.7" r="0.6" fill="#e6cf92" opacity="0.49"/>
  <circle cx="905.2" cy="91.2" r="1.7" fill="#c8a860" opacity="0.58"/>
  <circle cx="1077.3" cy="27.0" r="1.0" fill="#c8a860" opacity="0.75"/>
  <circle cx="1200.0" cy="80.3" r="1.3" fill="#c8a860" opacity="0.67"/>
  <circle cx="920.5" cy="47.7" r="0.6" fill="#c8a860" opacity="0.23"/>
  <circle cx="1200.0" cy="90.2" r="1.0" fill="#e6cf92" opacity="0.55"/>
  <circle cx="1041.8" cy="32.0" r="2.4" fill="#e6cf92" opacity="0.65"/>
  <circle cx="1106.6" cy="28.9" r="1.7" fill="#e6cf92" opacity="0.66"/>
  <circle cx="884.3" cy="70.8" r="1.7" fill="#c8a860" opacity="0.54"/>
  <circle cx="1200.0" cy="60.6" r="0.8" fill="#c8a860" opacity="0.74"/>
  <circle cx="872.7" cy="53.6" r="1.3" fill="#c8a860" opacity="0.19"/>
  <circle cx="1157.4" cy="13.1" r="0.6" fill="#c8a860" opacity="0.61"/>
  <circle cx="719.6" cy="104.0" r="1.7" fill="#c8a860" opacity="0.62"/>
  <circle cx="739.4" cy="142.0" r="1.3" fill="#c8a860" opacity="0.38"/>
  <circle cx="1200.0" cy="43.1" r="1.7" fill="#e6cf92" opacity="0.22"/>
  <circle cx="872.5" cy="320.3" r="1.3" fill="#e6cf92" opacity="0.32"/>
  <circle cx="1145.8" cy="243.3" r="1.7" fill="#c8a860" opacity="0.35"/>
  <circle cx="1090.2" cy="61.5" r="0.6" fill="#c8a860" opacity="0.73"/>
  <circle cx="637.3" cy="164.0" r="1.0" fill="#c8a860" opacity="0.83"/>
  <circle cx="1200.0" cy="256.1" r="0.6" fill="#c8a860" opacity="0.64"/>
  <circle cx="731.0" cy="65.7" r="2.4" fill="#c8a860" opacity="0.23"/>
  <circle cx="828.7" cy="21.6" r="0.6" fill="#c8a860" opacity="0.54"/>
  <circle cx="1200.0" cy="519.2" r="0.8" fill="#c8a860" opacity="0.66"/>
  <circle cx="1200.0" cy="152.3" r="0.6" fill="#c8a860" opacity="0.51"/>
  <circle cx="1200.0" cy="104.3" r="0.6" fill="#e6cf92" opacity="0.37"/>
  <circle cx="787.9" cy="90.2" r="0.6" fill="#e6cf92" opacity="0.67"/>
</svg>