<?xml version="1.0" encoding="UTF-8"?>
<svg xmlns="http://www.w3.org/2000/svg" viewBox="0 0 768 660" width="768" height="660" role="img" aria-label="gori logo">
  <g transform="translate(0,660) scale(0.1,-0.1)" fill="#000000" stroke="none">
    <path d="M3595 5853 c-319 -40 -665 -233 -847 -473 -100 -132 -142 -259 -136 -411 3 -87 7 -104 41 -172 26 -53 54 -91 97 -130 l60 -56 -33 -19 c-17 -10 -59 -34 -92 -52 -487 -268 -962 -664 -1271 -1060 -126 -161 -253 -395 -310 -570 -35 -111 -45 -306 -20 -414 21 -87 74 -188 135 -257 l48 -53 18 74 c10 41 26 92 36 114 18 38 18 39 -1 63 -62 79 -73 259 -26 418 100 337 445 770 889 1118 227 178 431 310 716 464 l154 83 139 0 c358 0 703 146 936 395 396 424 176 951 -392 944 -61 -1 -124 -4 -141 -6z m338 -222 c82 -32 136 -77 170 -141 26 -50 28 -63 25 -135 -3 -65 -9 -93 -35 -148 -125 -263 -434 -447 -819 -488 -138 -14 -232 -2 -322 42 -106 52 -147 128 -141 261 10 185 179 387 429 513 190 95 320 126 510 121 100 -2 136 -7 183 -25z M5120 5410 c-114 -11 -343 -44 -420 -61 -105 -22 -145 -106 -81 -170 35 -34 75 -37 198 -14 187 36 321 48 528 49 226 0 312 -11 482 -60 216 -62 366 -191 408 -349 14 -57 21 -166 10 -177 -3 -3 -36 6 -73 19 -493 180 -1507 13 -2449 -403 -1163 -514 -2086 -1317 -2294 -1994 -28 -92 -32 -120 -33 -225 -1 -182 39 -283 163 -405 85 -85 165 -132 307 -179 385 -129 1070 -73 1735 142 l137 44 4 -81 c10 -177 127 -312 315 -361 76 -20 259 -20 358 0 271 56 533 213 648 388 59 89 80 162 76 264 -3 76 -9 98 -36 154 -40 82 -102 140 -191 182 -56 26 -82 32 -157 35 -105 5 -115 2 -370 -113 -361 -162 -679 -282 -961 -360 -388 -108 -640 -151 -944 -162 -369 -12 -631 49 -777 181 -164 148 -149 403 40 718 174 289 501 630 872 907 510 382 1111 693 1747 902 756 249 1495 309 1815 148 88 -45 168 -119 205 -193 27 -52 32 -75 36 -151 5 -116 -14 -200 -77 -331 -140 -293 -423 -609 -800 -891 -176 -133 -195 -158 -164 -221 24 -49 64 -68 112 -53 20 6 95 56 166 112 339 266 565 498 746 767 261 389 289 756 75 987 l-52 55 13 78 c35 194 -23 385 -160 529 -130 137 -354 241 -597 278 -128 19 -430 27 -560 15z m-295 -3419 c85 -38 133 -126 114 -209 -28 -129 -129 -231 -313 -318 -149 -70 -227 -88 -396 -88 -158 -1 -194 9 -249 68 -33 35 -52 113 -40 166 20 88 15 85 310 213 426 186 428 187 484 187 28 0 68 -9 90 -19z M6076 4217 c-147 -266 -591 -718 -927 -941 -31 -20 -61 -47 -68 -59 -38 -73 6 -147 87 -147 34 0 72 24 202 125 389 303 638 558 835 858 l58 88 -29 42 c-27 38 -93 86 -119 87 -5 0 -23 -24 -39 -53z M3790 2488 c-199 -87 -363 -144 -615 -214 -202 -57 -536 -113 -795 -135 -142 -11 -401 -7 -517 10 -29 4 -57 5 -61 2 -19 -13 -44 -76 -49 -126 -6 -60 -15 -54 122 -76 103 -17 493 -17 640 -1 286 32 610 100 890 187 189 59 573 210 602 237 43 40 37 120 -12 152 -39 25 -82 18 -205 -36z"/>
  </g>
</svg>
